<svg width="810" height="810" viewBox="0 0 810 810" fill="none" xmlns="http://www.w3.org/2000/svg">
<path d="M224.989 269.986L259.38 235.595C265.237 229.737 274.735 229.737 280.593 235.595L391.48 346.482L346.482 391.48L224.989 269.986Z" fill="#088395"/>
<path d="M418.479 463.476L463.476 418.479L584.97 539.972L550.579 574.364C544.721 580.221 535.224 580.221 529.366 574.364L418.479 463.476Z" fill="#088395"/>
<rect x="179.991" y="584.97" width="572.727" height="63.6364" rx="15" transform="rotate(-45 179.991 584.97)" fill="#088395"/>
<path d="M539.972 494.975L764.961 269.986L799.352 304.377C805.21 310.235 805.21 319.733 799.352 325.591L584.97 539.972L539.972 494.975Z" fill="#0A4D68"/>
<path d="M10.6066 505.581C4.74874 499.723 4.74874 490.226 10.6066 484.368L224.989 269.986L269.986 314.984L44.9977 539.972L10.6066 505.581Z" fill="#0A4D68"/>
</svg>
