<svg width="1588" height="455" viewBox="0 0 1588 455" fill="none" xmlns="http://www.w3.org/2000/svg">
<path d="M126.269 151.731L140.916 137.084C146.774 131.226 156.272 131.226 162.129 137.084L219.708 194.662L194.454 219.916L126.269 151.731Z" fill="#088395"/>
<path d="M234.86 260.322L260.114 235.068L328.299 303.254L313.652 317.901C307.794 323.759 298.297 323.759 292.439 317.901L234.86 260.322Z" fill="#088395"/>
<rect x="101.015" y="328.508" width="321.429" height="35.7143" rx="15" transform="rotate(-45 101.015 328.508)" fill="#088395"/>
<path d="M303.046 278L429.315 151.731L443.962 166.378C449.82 172.236 449.82 181.733 443.962 187.591L328.3 303.254L303.046 278Z" fill="#0A4D68"/>
<path d="M10.6066 288.607C4.74874 282.749 4.74874 273.251 10.6066 267.393L126.269 151.731L151.523 176.985L25.2538 303.254L10.6066 288.607Z" fill="#0A4D68"/>
<path d="M499.329 277V193.688L497.689 180.568H521.305L577.065 238.952L583.461 247.808H585.265V180.568H606.913V277H586.085L529.013 217.632L522.617 209.924H520.977V277H499.329ZM651.549 277C646.191 277 641.982 276.289 638.921 274.868C635.969 273.447 633.837 271.643 632.525 269.456C631.322 267.269 630.557 264.973 630.229 262.568C630.01 260.163 629.901 257.976 629.901 256.008V203.528H649.909V256.336C649.799 258.741 650.565 260.436 652.205 261.42C653.954 262.404 655.813 262.896 657.781 262.896H690.253C692.658 262.896 694.079 262.677 694.517 262.24C694.954 261.803 695.173 260.381 695.173 257.976V203.528H715.181V277H701.733L695.501 273.72C691.127 274.595 685.934 275.36 679.921 276.016C674.017 276.672 667.347 277 659.913 277H651.549ZM734.803 277V203.528H748.251L752.351 205.496C755.522 204.949 759.403 204.512 763.995 204.184C768.587 203.747 774.054 203.528 780.395 203.528H788.595C791.766 203.528 794.827 203.965 797.779 204.84C800.731 205.605 802.918 206.753 804.339 208.284C807.182 206.863 811.118 205.715 816.147 204.84C821.176 203.965 827.736 203.528 835.827 203.528H844.027C849.494 203.528 853.703 204.293 856.655 205.824C859.607 207.355 861.684 209.268 862.887 211.564C864.199 213.86 864.964 216.211 865.183 218.616C865.511 220.912 865.675 222.88 865.675 224.52V277H845.667V224.192C845.667 219.819 843.043 217.632 837.795 217.632H814.835C813.086 217.632 811.883 217.851 811.227 218.288C810.571 218.725 810.243 219.709 810.243 221.24V277H790.235V224.192C790.235 219.819 787.611 217.632 782.363 217.632H759.731C757.654 217.632 756.287 217.851 755.631 218.288C755.084 218.616 754.811 219.6 754.811 221.24V277H734.803ZM904.557 277C899.091 277 894.881 276.289 891.929 274.868C888.977 273.447 886.845 271.643 885.533 269.456C884.331 267.269 883.565 264.973 883.237 262.568C883.019 260.163 882.909 257.976 882.909 256.008V224.52C882.909 222.88 883.019 220.912 883.237 218.616C883.565 216.211 884.331 213.86 885.533 211.564C886.845 209.268 888.977 207.355 891.929 205.824C894.991 204.293 899.2 203.528 904.557 203.528H939.817C947.033 203.528 952.664 204.239 956.709 205.66C960.864 206.972 963.761 209.159 965.401 212.22C967.151 215.281 968.025 219.381 968.025 224.52V248.792H939.325C929.485 248.792 921.449 248.573 915.217 248.136C909.095 247.699 904.995 247.425 902.917 247.316V256.336C902.808 260.709 905.432 262.896 910.789 262.896H919.153C925.057 262.896 930.797 262.841 936.373 262.732C942.059 262.513 947.252 262.295 951.953 262.076C956.655 261.748 960.427 261.475 963.269 261.256L969.829 271.916C969.829 275.305 959.06 277 937.521 277H904.557ZM902.917 234.688H948.017V224.192C948.017 222.005 947.744 220.475 947.197 219.6C946.76 218.725 945.339 218.179 942.933 217.96C940.528 217.741 936.428 217.632 930.633 217.632H910.789C905.541 217.632 902.917 219.819 902.917 224.192V234.688ZM986.248 277V203.528H999.696L1005.93 206.808C1008.77 205.277 1011.83 204.075 1015.11 203.2C1018.39 202.325 1022.55 201.888 1027.58 201.888C1035.56 201.888 1042.01 202.763 1046.93 204.512C1051.96 206.261 1055.29 207.573 1056.93 208.448L1051.19 222.716C1049.88 222.06 1047.69 221.24 1044.63 220.256C1041.68 219.163 1038.18 218.179 1034.14 217.304C1030.09 216.429 1025.66 215.992 1020.85 215.992H1019.05C1013.8 215.992 1010.36 217.031 1008.72 219.108C1007.19 221.185 1006.37 224.629 1006.26 229.44V277H986.248ZM1080.05 193.196C1076.01 193.196 1073.06 192.376 1071.2 190.736C1069.34 189.096 1068.41 186.363 1068.41 182.536C1068.41 178.6 1069.28 175.867 1071.03 174.336C1072.89 172.696 1075.9 171.876 1080.05 171.876C1084.21 171.876 1087.21 172.696 1089.07 174.336C1090.93 175.867 1091.86 178.6 1091.86 182.536C1091.86 186.253 1090.93 188.987 1089.07 190.736C1087.21 192.376 1084.21 193.196 1080.05 193.196ZM1070.05 277V203.528H1090.06V277H1070.05Z" fill="#0A4D68"/>
<path d="M1103.29 277L1109.52 267.16L1145.93 228.784L1103.29 180.568H1129.53L1161.18 216.812H1162.99L1194.8 180.568H1221.04L1214.65 190.244L1178.4 228.784L1221.04 277H1194.8L1162.99 240.428H1161.18L1129.53 277H1103.29ZM1232.57 307.504V203.528H1246.02L1250.12 205.66C1255.04 205.113 1260.89 204.621 1267.66 204.184C1274.55 203.747 1282.37 203.528 1291.12 203.528H1299.48C1304.95 203.528 1309.16 204.239 1312.11 205.66C1315.06 207.081 1317.14 208.885 1318.34 211.072C1319.65 213.259 1320.42 215.555 1320.64 217.96C1320.96 220.365 1321.13 222.552 1321.13 224.52V256.008C1321.13 257.648 1320.96 259.671 1320.64 262.076C1320.42 264.372 1319.65 266.668 1318.34 268.964C1317.14 271.26 1315.06 273.173 1312.11 274.704C1309.16 276.235 1304.95 277 1299.48 277H1291.12C1282.81 277 1275.43 276.781 1268.98 276.344C1262.53 275.907 1257.06 275.469 1252.58 275.032V307.504H1232.57ZM1257.66 262.896H1293.25C1295.33 262.896 1297.13 262.349 1298.66 261.256C1300.3 260.163 1301.12 258.523 1301.12 256.336V224.192C1301.23 221.787 1300.63 220.092 1299.32 219.108C1298.11 218.124 1296.09 217.632 1293.25 217.632H1285.05C1278.05 217.632 1271.82 217.796 1266.35 218.124C1261 218.343 1256.4 218.616 1252.58 218.944V257.812C1252.58 260.217 1252.8 261.693 1253.23 262.24C1253.78 262.677 1255.26 262.896 1257.66 262.896ZM1359.24 277C1353.77 277 1349.56 276.289 1346.61 274.868C1343.66 273.447 1341.53 271.643 1340.22 269.456C1339.01 267.269 1338.25 264.973 1337.92 262.568C1337.7 260.163 1337.59 257.976 1337.59 256.008V224.52C1337.59 222.88 1337.7 220.912 1337.92 218.616C1338.25 216.211 1339.01 213.86 1340.22 211.564C1341.53 209.268 1343.66 207.355 1346.61 205.824C1349.67 204.293 1353.88 203.528 1359.24 203.528H1394.5C1401.72 203.528 1407.35 204.239 1411.39 205.66C1415.55 206.972 1418.44 209.159 1420.08 212.22C1421.83 215.281 1422.71 219.381 1422.71 224.52V248.792H1394.01C1384.17 248.792 1376.13 248.573 1369.9 248.136C1363.78 247.699 1359.68 247.425 1357.6 247.316V256.336C1357.49 260.709 1360.12 262.896 1365.47 262.896H1373.84C1379.74 262.896 1385.48 262.841 1391.06 262.732C1396.74 262.513 1401.94 262.295 1406.64 262.076C1411.34 261.748 1415.11 261.475 1417.95 261.256L1424.51 271.916C1424.51 275.305 1413.74 277 1392.2 277H1359.24ZM1357.6 234.688H1402.7V224.192C1402.7 222.005 1402.43 220.475 1401.88 219.6C1401.44 218.725 1400.02 218.179 1397.62 217.96C1395.21 217.741 1391.11 217.632 1385.32 217.632H1365.47C1360.22 217.632 1357.6 219.819 1357.6 224.192V234.688ZM1440.93 277V203.528H1454.38L1460.61 206.808C1463.45 205.277 1466.52 204.075 1469.8 203.2C1473.08 202.325 1477.23 201.888 1482.26 201.888C1490.24 201.888 1496.69 202.763 1501.61 204.512C1506.64 206.261 1509.98 207.573 1511.62 208.448L1505.88 222.716C1504.56 222.06 1502.38 221.24 1499.32 220.256C1496.36 219.163 1492.87 218.179 1488.82 217.304C1484.77 216.429 1480.35 215.992 1475.54 215.992H1473.73C1468.48 215.992 1465.04 217.031 1463.4 219.108C1461.87 221.185 1461.05 224.629 1460.94 229.44V277H1440.93ZM1551.63 277C1543.32 277 1537.63 275.251 1534.57 271.752C1531.51 268.253 1529.98 263.005 1529.98 256.008V217.632H1516.53V203.528H1523.42C1525.5 203.528 1526.97 203.2 1527.85 202.544C1528.83 201.888 1529.54 200.576 1529.98 198.608L1533.26 181.06H1549.99V203.528H1584.1V217.632H1549.99V256.172C1549.99 258.905 1550.64 260.709 1551.96 261.584C1553.27 262.459 1555.24 262.896 1557.86 262.896H1580.98L1582.62 275.36C1580.33 275.688 1576.83 276.071 1572.13 276.508C1567.43 276.836 1562.29 277 1556.71 277H1551.63Z" fill="#088395"/>
</svg>
